<svg xmlns="http://www.w3.org/2000/svg" width="32" height="32" id="shopping"><g transform="translate(0 -1020.362)"><path fill="#25b39e" d="M16 2C8.268 2 2 8.268 2 16s6.268 14 14 14 14-6.268 14-14S23.732 2 16 2Zm0 3c6.075 0 11 4.925 11 11s-4.925 11-11 11S5 22.075 5 16 9.925 5 16 5Z" color="#000" overflow="visible" transform="translate(0 1020.362)" style="isolation:auto;mix-blend-mode:normal"></path><path fill="none" stroke="#576d7e" stroke-dashoffset="1.1" stroke-linecap="square" stroke-linejoin="round" d="M16 1020.862c-8.56 0-15.5 6.94-15.5 15.5 0 8.56 6.94 15.5 15.5 15.5 8.56 0 15.5-6.94 15.5-15.5 0-8.56-6.94-15.5-15.5-15.5z" color="#000" overflow="visible" style="isolation:auto;mix-blend-mode:normal"></path><path fill="none" stroke="#576d7e" stroke-dashoffset="1.1" stroke-linecap="square" stroke-linejoin="round" style="isolation:auto;mix-blend-mode:normal" d="M16 1026.862a9.5 9.5 0 1 0 0 19 9.5 9.5 0 0 0 0-19z" color="#000" overflow="visible"></path><circle cx="-718.378" cy="745.011" r=".835" fill="none" stroke="#576d7e" stroke-dashoffset=".8" stroke-linecap="round" stroke-linejoin="round" style="isolation:auto;mix-blend-mode:normal" color="#000" overflow="visible" transform="rotate(-44.996)"></circle><path fill="none" stroke="#576d7e" stroke-linecap="round" stroke-linejoin="round" d="m18.005 1038.856 4.99-4.988"></path><circle cx="-718.378" cy="749.723" r=".835" fill="none" stroke="#576d7e" stroke-dashoffset=".8" stroke-linecap="round" stroke-linejoin="round" color="#000" overflow="visible" transform="rotate(-44.996)" style="isolation:auto;mix-blend-mode:normal"></circle></g></svg>